<svg xmlns="http://www.w3.org/2000/svg" width="64" height="64" viewBox="0 0 500 500">
  <rect width="500" height="500" rx="70" fill="#007550"/>
  <path fill="white" fill-rule="evenodd" d="M197,309C196,309 195,310 194,309C194,309 194,309 193,309C192,308 187,309 186,309C185,308 186,308 185,308C184,307 180,307 179,308C179,308 179,308 179,309C179,309 178,310 178,310C178,310 178,311 178,311C178,311 177,311 177,312C177,312 177,312 177,312C177,313 176,313 176,313C176,313 176,314 176,314C176,314 175,315 175,315C175,316 175,316 175,316C175,316 174,316 174,317C174,317 174,317 174,317C174,318 173,319 173,319C172,319 173,319 173,320C172,320 171,321 170,322C170,322 170,322 170,323C170,323 168,325 167,326C167,326 168,326 167,326C167,327 163,330 163,331C163,331 163,331 163,331C162,333 156,340 154,340C154,340 154,340 153,340C153,341 151,344 150,344C149,344 149,344 149,344C148,344 147,347 146,347C146,347 146,347 145,347C145,347 144,348 144,348C144,349 143,348 143,348C142,349 141,350 141,351C141,351 140,351 140,351C140,351 140,351 139,351C139,351 139,351 139,351C138,352 138,353 137,353C137,353 137,353 136,353C136,353 136,354 136,354C135,354 135,354 135,354C135,354 134,354 134,354C134,354 134,354 133,354C133,354 133,355 133,355C133,355 132,355 132,355C132,355 132,356 131,356C131,356 131,356 131,356C130,356 130,356 130,357C130,357 129,356 129,357C129,357 129,357 128,357C128,357 128,357 128,357C127,357 127,358 127,358C127,358 126,358 126,358C126,358 126,359 125,359C125,359 125,359 125,359C124,359 124,359 124,360C124,360 123,359 123,360C123,360 123,360 122,360C122,360 121,360 121,360C121,360 120,361 120,361C120,361 120,361 119,361C119,361 119,362 119,362C118,362 118,362 117,362C117,362 117,362 117,362C116,363 116,362 116,362C116,363 115,363 115,363C115,363 115,363 114,363C114,363 114,364 114,364C113,364 112,364 112,364C112,364 112,365 111,365C111,365 111,365 111,365C110,365 110,365 110,365C110,366 109,365 108,365C108,366 108,366 108,366C107,366 107,366 106,366C106,366 106,367 105,367C105,367 105,367 105,367C104,367 104,368 104,368C104,368 103,367 103,368C102,368 102,368 102,368C102,368 101,368 101,368C101,368 101,369 100,369C100,369 99,369 99,369C98,369 98,370 98,370C98,370 97,370 97,370C96,370 96,370 96,371C96,371 95,370 95,371C95,371 95,371 94,371C94,371 94,371 94,371C93,371 93,372 93,372C93,372 92,372 92,372C92,372 92,373 91,373C91,373 90,373 90,373C90,373 90,373 89,374C89,374 89,373 88,374C88,374 88,374 88,374C88,374 87,374 87,374C87,374 87,375 86,375C86,375 86,375 86,375C85,375 85,376 85,376C85,376 84,376 84,376C84,376 84,376 83,376C83,377 83,376 83,376C81,377 76,382 76,383C76,383 76,384 76,384C76,384 74,385 74,386C74,386 74,387 74,387C74,387 73,387 73,388C73,388 73,388 73,388C73,389 72,389 72,390C71,390 72,390 72,390C71,391 71,391 71,391C71,392 71,392 71,393C71,393 70,393 70,393C70,394 70,395 70,395C70,395 69,395 69,396C69,396 69,397 69,397C69,397 69,398 69,398C68,398 69,400 69,400C68,400 68,400 68,401C68,401 68,402 68,402C68,403 67,403 67,403C67,404 67,405 67,405C67,406 67,406 66,406C66,406 67,408 66,408C66,409 66,409 66,409C65,409 66,410 66,410C66,411 65,411 65,411C65,412 65,412 65,413C65,413 64,413 64,413C64,414 64,415 64,416C64,416 64,416 63,416C63,417 64,417 63,418C63,418 63,418 63,419C62,419 63,420 63,421C63,421 62,421 62,421C62,422 62,423 62,423C62,423 61,423 61,424C61,424 61,425 61,426C61,426 61,426 60,427C60,427 61,428 60,428C60,428 60,428 60,429C60,429 60,431 60,431C60,431 59,431 59,432C59,432 59,433 59,433C59,434 58,434 58,434C58,434 58,434 58,435C58,436 55,439 54,439C54,439 53,439 53,439C53,439 51,441 51,441C51,441 50,441 50,441C50,442 49,443 48,444C48,444 47,443 47,444C47,444 47,445 47,445C47,445 48,446 48,446C48,446 48,446 48,447C48,447 49,447 49,447C49,448 49,448 49,449C49,449 49,449 49,449C50,450 49,451 49,451C50,451 50,451 50,452C50,452 50,454 50,455C50,456 49,457 48,457C48,457 47,457 47,457C47,457 47,457 46,458C46,458 45,457 45,458C45,458 45,458 44,458C44,459 43,458 42,458C42,458 42,459 41,459C41,459 40,459 40,459C40,459 39,460 39,460C39,460 37,460 37,460C37,460 36,460 36,461C36,461 36,460 35,461C35,461 35,461 35,461C34,461 34,461 34,461C34,461 33,462 33,462C33,462 33,463 33,463C33,463 33,463 32,464C32,464 33,466 32,466C32,467 32,467 32,467C31,469 31,479 32,480C32,481 32,481 32,481C33,482 32,484 32,484C33,485 33,485 33,485C33,485 33,487 33,487C33,487 34,488 34,488C34,488 34,489 34,489C34,490 34,490 35,490C35,490 35,490 35,490C36,490 36,489 36,489C36,489 37,489 37,489C37,489 39,487 39,487C39,487 40,487 40,487C41,487 42,484 43,484C43,484 43,484 44,484C44,484 47,481 47,480C47,480 47,480 47,480C48,479 51,477 51,476C51,476 51,476 51,475C51,475 53,474 53,473C53,473 53,473 53,472C53,472 56,470 56,469C56,469 56,469 56,469C56,468 58,467 58,466C58,466 58,466 58,466C58,465 60,464 60,464C61,463 60,463 60,463C61,462 63,461 63,460C64,460 63,459 63,459C64,458 66,457 66,456C66,456 66,456 66,455C67,455 68,454 69,453C69,453 68,452 69,452C69,451 69,451 69,451C69,451 69,450 69,449C69,449 70,449 70,449C70,448 70,446 70,446C70,445 71,445 71,445C71,445 71,444 71,444C71,443 71,443 72,443C72,442 71,441 72,441C72,440 72,440 72,440C72,440 72,439 72,438C72,438 73,438 73,438C73,437 73,436 73,435C73,435 74,435 74,435C74,434 74,434 74,433C74,433 74,433 74,433C75,432 74,431 74,430C75,430 75,430 75,430C75,429 75,428 75,428C75,428 76,428 76,427C76,427 76,426 76,426C76,426 77,425 77,425C77,425 77,424 77,424C77,423 77,423 77,423C78,423 77,422 77,421C78,421 78,421 78,421C78,420 78,420 78,419C78,419 79,419 79,419C79,418 79,417 79,417C79,417 80,417 80,416C80,416 80,416 80,416C80,415 80,415 80,415C81,414 80,414 80,413C81,413 81,413 81,413C81,412 81,412 81,411C81,411 82,411 82,410C82,410 82,410 82,410C82,409 82,409 83,409C83,409 82,408 83,407C83,407 83,407 83,407C83,406 83,406 83,406C83,406 84,406 84,405C84,405 84,404 84,404C84,403 85,403 85,403C85,403 85,403 85,402C85,402 85,402 86,402C86,401 85,401 86,401C86,401 86,400 86,400C86,400 86,399 86,399C86,398 87,398 87,398C87,398 87,397 87,397C87,397 88,397 88,396C88,396 88,396 88,396C88,395 88,395 88,395C89,395 88,394 88,394C89,394 89,394 89,393C89,393 89,393 89,393C89,392 90,392 90,392C90,392 90,391 90,391C90,391 91,391 91,390C91,390 91,390 91,390C91,389 91,389 91,389C92,389 91,389 91,388C92,388 93,387 93,387C93,387 93,386 93,386C93,386 94,385 94,385C95,384 94,384 94,384C95,383 99,379 100,379C100,379 100,379 100,379C101,379 101,378 101,378C101,378 102,378 102,378C102,378 102,377 103,377C103,377 103,377 103,377C104,377 104,377 104,376C104,376 104,377 105,376C105,376 105,376 105,376C106,376 106,376 106,376C106,376 107,375 107,375C107,375 108,375 108,375C109,375 109,374 109,374C109,374 110,374 110,374C110,374 110,374 111,374C111,373 112,374 112,374C112,373 113,373 113,373C113,373 114,373 114,373C115,373 115,372 115,372C115,372 116,372 116,372C116,372 116,371 117,371C117,371 118,371 118,371C118,371 118,371 119,371C119,370 120,371 120,371C121,370 121,370 121,370C121,370 122,370 122,370C123,370 123,369 123,369C124,369 124,369 125,369C125,369 125,368 125,368C126,368 126,368 126,368C126,368 127,368 127,368C127,367 128,368 128,368C129,368 129,367 129,367C129,367 130,367 130,367C130,367 130,366 131,366C131,366 132,366 132,366C132,366 132,366 133,365C133,365 133,366 133,365C134,365 134,365 134,365C135,365 135,365 136,365C136,365 136,364 136,364C137,364 137,364 137,364C137,364 138,363 138,363C138,363 139,363 139,363C140,363 140,363 140,362C140,362 141,363 141,362C141,362 141,362 142,362C142,362 142,362 142,362C143,362 143,361 143,361C143,361 144,361 144,361C144,361 144,360 145,360C145,360 145,360 145,360C146,360 146,360 146,360C146,359 147,360 147,360C147,359 147,359 147,359C148,359 148,359 148,359C148,359 149,358 149,358C149,358 149,358 150,358C150,358 150,357 150,357C151,357 151,357 151,357C151,357 152,357 152,357C152,356 152,357 153,357C153,356 153,356 153,356C154,356 154,356 154,356C155,356 155,355 156,354C156,354 156,354 156,354C157,354 157,353 158,353C158,353 158,353 159,353C159,353 159,352 159,352C160,352 160,352 160,352C160,352 161,351 162,351C162,351 162,351 162,351C163,350 164,349 164,348C165,348 165,349 165,348C166,348 167,346 168,346C168,345 169,346 169,346C170,345 171,343 172,343C172,342 172,343 173,343C174,342 180,336 181,334C181,334 181,334 181,334C181,333 184,331 184,330C184,330 184,330 184,329C185,328 188,326 188,326C188,325 188,325 188,325C188,324 189,324 190,323C190,323 189,323 190,323C190,322 191,322 191,321C191,321 191,321 191,320C191,320 192,319 192,319C193,319 192,318 192,318C193,318 193,318 193,317C193,317 193,317 193,317C193,316 195,316 195,315C195,315 195,315 195,315C195,314 195,314 195,314C196,314 195,313 195,313C196,313 196,313 196,312C196,312 196,312 196,312C196,311 197,311 197,311C197,310 197,310 197,309Z M420,247C420,247 417,247 417,247C416,248 416,248 416,248C416,248 416,249 416,249C416,249 415,249 415,250C415,250 415,250 415,250C415,251 415,251 414,251C414,251 415,252 414,252C414,252 413,253 413,253C413,254 413,254 413,254C413,254 412,255 412,255C412,255 412,255 412,256C412,256 412,256 412,256C411,256 412,257 412,257C411,257 411,257 411,258C411,258 411,258 411,258C411,259 409,260 409,260C409,260 409,260 409,261C409,261 409,261 409,261C408,262 409,262 409,262C408,263 407,263 407,264C407,264 407,264 407,264C407,265 406,265 406,265C406,265 406,266 406,266C406,266 405,267 405,267C405,268 405,268 405,268C405,269 404,269 403,270C403,270 404,270 403,270C403,271 402,271 402,272C402,272 402,272 402,272C402,273 400,275 399,275C398,276 398,275 397,275C397,276 397,276 397,276C396,276 396,276 395,276C395,276 395,277 395,277C394,277 393,277 392,277C392,277 392,278 392,278C391,278 390,277 389,278C389,278 389,278 389,278C388,279 388,280 389,281C389,281 389,281 389,281C390,282 390,286 389,287C389,288 389,288 388,289C387,289 384,289 383,289C382,289 382,288 382,288C381,288 380,288 379,288C379,288 379,287 378,287C378,287 376,288 375,287C375,287 375,287 375,286C374,286 372,286 371,286C371,287 370,287 370,287C370,287 370,288 370,288C370,288 369,289 369,289C369,290 369,290 369,290C369,291 367,291 367,292C367,292 367,292 367,292C367,293 367,293 367,293C366,293 367,294 367,294C366,294 366,294 366,295C366,295 366,295 366,295C366,296 365,296 365,296C365,296 365,297 365,298C365,298 364,298 364,298C364,299 364,299 364,299C364,299 364,299 364,300C363,300 364,301 364,301C363,302 363,302 363,302C363,302 363,304 363,304C363,305 362,305 362,305C362,306 362,307 362,308C362,308 362,308 361,309C361,309 362,312 361,312C361,313 361,313 361,313C361,313 360,314 361,314C361,314 363,314 364,314C364,314 364,313 364,313C365,313 366,313 367,313C367,313 367,312 367,312C368,312 368,312 369,312C369,312 369,312 369,312C370,311 371,312 371,312C371,311 371,311 372,311C372,311 373,311 373,311C373,311 374,310 374,310C374,310 375,310 375,310C376,310 376,309 376,309C376,309 377,309 377,309C377,309 377,309 378,309C378,309 378,309 378,309C379,309 379,308 379,308C379,308 380,308 380,308C380,308 380,307 381,307C381,307 381,307 381,307C382,307 382,307 382,306C382,306 383,307 383,306C384,306 385,305 385,305C385,305 385,305 386,305C386,305 386,304 386,304C387,304 387,304 387,304C387,304 388,304 388,303C388,303 388,304 389,303C389,303 389,303 389,303C390,303 390,303 390,303C390,303 391,302 391,302C391,302 391,302 392,302C392,302 393,301 393,301C393,300 394,301 394,301C394,300 394,300 395,300C395,300 395,300 395,300C396,300 396,299 396,299C396,299 397,299 397,299C397,299 397,298 397,298C398,298 398,298 398,298C398,298 399,298 399,298C399,297 399,298 400,298C400,297 400,297 400,297C401,297 401,297 401,297C401,297 402,296 402,296C402,296 402,296 403,296C403,296 403,295 403,295C404,295 404,295 404,295C405,295 406,294 406,293C406,293 406,293 406,292C406,292 407,292 407,292C407,291 407,291 407,291C407,290 408,290 409,289C409,289 408,289 409,289C409,288 409,288 409,288C409,288 409,288 409,287C409,287 411,286 411,286C411,286 411,285 411,285C411,285 412,284 412,284C412,283 412,283 412,283C412,283 413,282 413,282C413,282 413,282 413,281C413,281 414,280 414,280C415,280 414,279 414,279C415,279 415,279 415,278C415,278 415,278 415,278C415,277 416,277 417,276C417,276 417,276 417,275C417,275 417,275 417,275C417,274 417,274 417,274C418,274 418,274 418,273C418,273 418,273 418,272C418,272 419,272 419,272C419,272 419,271 419,271C419,271 419,271 420,270C420,270 419,269 420,268C420,268 420,268 420,267C421,266 420,262 420,261C421,261 421,261 421,261C422,259 422,250 421,248C421,248 421,248 420,247Z M487,100C486,98 485,98 484,97C481,95 474,93 471,92C470,91 469,91 468,91C463,91 451,92 447,92C445,92 444,91 442,90C439,89 434,86 431,84C427,81 423,74 421,73C421,73 421,73 420,73C420,74 420,81 421,84C422,87 423,89 424,91C426,94 430,97 431,99C431,101 431,102 430,103C429,103 428,103 427,103C425,102 421,98 419,96C417,93 415,89 414,87C413,84 414,81 412,80C408,77 391,85 381,87C372,88 361,90 353,91C347,92 339,91 337,92C337,92 337,92 336,93C335,93 324,91 324,92C324,92 325,93 326,94C327,95 331,95 332,96C333,97 333,99 333,100C332,100 332,100 332,101C330,101 322,101 318,101C314,102 309,103 305,104C301,106 296,108 292,110C289,112 286,114 282,116C279,119 275,122 271,126C264,132 254,144 247,149C243,153 237,156 236,157C236,158 236,158 236,158C236,158 237,158 238,158C240,158 244,156 246,156C247,156 249,156 249,157C250,157 250,159 249,160C248,162 241,166 236,170C229,175 221,180 213,185C205,190 194,195 187,198C181,200 177,202 173,203C169,204 165,204 161,205C157,206 152,207 148,209C145,210 143,212 139,214C135,216 130,219 126,223C122,227 117,235 114,237C112,238 111,237 110,238C107,239 101,242 97,245C94,248 91,251 89,253C88,255 87,256 86,258C83,263 78,276 75,281C73,284 72,285 70,287C68,290 65,292 61,295C56,298 47,301 41,303C38,305 35,307 32,309C31,311 28,313 28,314C28,314 28,315 28,315C29,316 38,313 40,314C41,314 41,316 41,317C39,320 32,324 27,327C23,329 16,332 15,333C15,333 15,334 15,334C15,334 21,334 25,334C32,333 49,326 52,328C53,329 53,331 52,332C52,335 44,338 44,340C44,340 45,340 45,340C47,341 55,337 59,335C62,333 65,331 68,329C71,326 74,322 76,319C78,316 80,312 82,308C83,304 85,300 86,295C87,290 86,282 88,276C89,271 91,267 93,264C95,260 99,255 102,254C103,254 105,254 105,255C107,257 103,266 103,272C102,281 103,293 103,301C102,305 102,308 101,311C100,314 100,316 99,318C98,321 96,324 94,327C91,331 85,336 81,339C77,342 73,344 69,346C65,347 59,348 57,350C55,351 55,352 54,353C53,355 52,358 51,361C49,366 49,373 46,381C44,392 37,411 34,419C32,423 32,425 30,427C29,429 28,430 26,432C24,434 19,435 18,437C17,439 20,442 20,444C20,446 20,447 20,448C20,449 19,450 18,450C15,452 5,451 2,454C0,456 0,460 0,464C-0,467 -0,471 0,474C0,477 1,481 2,483C3,483 3,483 4,483C5,483 9,480 12,478C15,475 17,472 21,469C26,463 33,456 38,448C43,438 47,422 52,411C55,403 59,394 63,388C65,384 67,381 69,378C72,375 75,372 79,369C84,366 90,364 97,361C104,358 115,355 122,351C127,349 131,347 136,344C139,342 142,340 146,337C150,333 155,328 159,323C164,318 168,311 172,305C175,299 178,292 180,286C182,282 182,274 184,272C185,272 187,272 187,273C189,275 188,280 187,284C187,288 183,296 184,298C186,300 190,299 195,300C203,300 221,300 229,300C235,299 237,299 242,298C248,297 255,296 262,295C271,293 282,290 291,286C298,284 305,281 311,278C316,275 321,273 325,270C330,268 336,264 338,262C338,261 339,261 338,260C338,258 334,256 333,253C330,249 327,242 325,238C324,235 324,233 324,231C324,229 324,227 324,226C325,225 327,226 328,227C330,229 332,236 334,239C336,242 338,246 339,247C340,248 341,249 341,250C342,250 343,251 345,251C349,252 357,251 361,251C365,251 367,251 372,250C380,248 399,242 409,240C414,239 419,238 423,239C425,240 426,241 427,242C428,243 429,245 429,247C430,249 430,252 429,256C429,262 427,275 426,279C425,281 424,282 423,284C422,286 416,287 415,290C414,293 418,298 417,301C417,302 415,302 413,303C410,304 402,304 400,305C400,306 399,306 399,307C398,309 398,312 397,315C397,318 397,321 397,325C398,328 398,334 400,334C401,335 405,332 408,329C415,324 431,311 436,300C440,290 438,278 440,269C441,261 442,254 443,249C444,245 446,242 446,239C447,237 447,234 447,232C446,229 445,227 443,225C442,223 440,221 439,220C437,219 436,218 434,218C431,217 420,217 418,218C418,218 418,218 417,219C415,220 391,219 387,219C386,218 385,219 385,218C384,217 384,214 384,212C384,211 385,210 386,209C386,207 387,204 387,201C387,196 388,190 386,185C385,180 384,176 381,172C379,168 373,163 372,160C372,159 372,158 372,157C373,157 375,156 376,157C378,157 381,161 383,163C385,165 386,166 388,169C390,171 392,175 393,178C394,181 395,183 395,186C396,191 396,198 395,202C395,206 393,209 394,211C395,212 400,212 402,211C405,209 407,201 409,197C410,192 410,186 412,182C415,176 421,171 426,167C428,164 433,163 434,161C434,160 432,158 432,156C432,154 432,149 432,148C432,147 432,147 433,147C434,147 436,147 437,148C438,149 438,153 439,156C440,159 441,161 443,164C446,168 449,172 452,175C455,179 461,182 462,185C464,189 462,193 463,196C464,199 465,201 467,203C468,205 469,206 471,207C473,208 477,206 479,206C481,206 481,207 482,208C484,208 488,208 490,207C492,206 493,204 495,202C496,201 497,199 498,197C499,195 499,192 499,188C500,184 500,178 499,171C499,162 498,148 496,136C494,124 491,105 487,100Z M467,115C468,114 469,114 470,115C470,115 470,115 470,115C471,116 470,117 470,118C471,118 471,118 471,118C471,119 471,119 471,119C471,119 472,120 472,120C472,120 472,120 472,121C472,121 475,123 476,124C476,125 476,125 476,125C476,125 476,125 476,125C477,125 478,126 478,126C478,127 478,127 478,127C478,127 478,128 479,128C479,129 479,134 479,135C478,136 478,136 478,136C477,136 476,136 475,136C475,136 474,136 474,135C474,135 474,133 474,132C474,132 474,132 473,132C473,131 474,130 473,129C473,129 473,129 473,129C473,128 473,128 473,128C473,128 472,128 472,128C471,128 470,126 470,126C469,126 469,126 469,126C468,126 467,124 467,124C467,123 467,123 467,123C467,123 466,122 466,122C466,122 466,122 466,121C466,121 466,121 465,121C465,120 465,117 465,116C466,115 466,115 467,115Z M456,15C456,15 456,16 456,16C456,16 456,16 456,17C457,17 456,17 456,17C457,18 457,18 457,18C457,18 457,19 457,19C457,19 458,19 458,20C458,20 458,20 458,20C458,21 459,21 459,21C459,21 459,22 459,22C459,23 459,23 459,23C460,23 459,24 459,24C460,24 460,24 460,25C460,25 460,26 460,27C460,27 461,27 461,28C461,28 461,29 461,29C461,29 461,29 462,30C462,32 462,41 462,43C461,44 461,44 461,44C461,45 461,46 461,47C461,47 460,47 460,48C460,48 460,49 460,50C460,50 460,50 459,51C459,51 460,52 459,52C459,52 459,52 459,53C458,53 459,54 459,55C459,55 458,55 458,56C458,56 458,58 458,58C458,58 458,58 459,58C459,58 459,57 459,57C460,57 461,57 462,57C462,57 462,57 462,56C464,56 470,57 471,56C472,56 472,56 472,56C472,55 472,53 472,52C472,52 473,52 473,51C473,50 473,43 473,42C473,41 472,41 472,41C472,40 472,39 472,38C472,38 471,38 471,37C471,37 471,36 471,36C471,35 471,35 470,35C470,35 471,34 470,34C470,33 470,33 470,33C470,32 470,32 470,31C470,31 469,31 469,31C469,30 469,30 469,30C469,30 468,29 468,29C468,29 468,29 468,28C468,28 468,28 468,28C467,27 468,27 468,27C467,27 467,26 467,26C467,26 467,26 467,25C467,25 465,24 465,23C464,23 465,23 465,22C464,21 460,17 459,17C458,16 458,17 458,17C458,16 457,15 456,15C456,15 456,15 456,15Z M439,9C439,9 439,10 439,10C439,10 439,10 440,11C440,11 439,11 440,11C440,12 440,12 440,12C440,12 440,13 440,13C440,13 441,13 441,14C441,14 441,15 441,15C441,15 442,16 442,16C442,16 442,16 442,17C442,17 442,17 442,17C443,18 442,19 442,20C443,20 443,20 443,20C443,21 443,23 443,23C443,24 444,24 444,24C444,25 444,30 444,31C444,31 443,31 443,31C443,32 443,33 443,34C443,34 443,34 442,34C442,35 443,36 442,36C442,37 442,37 442,37C442,37 442,38 442,38C442,38 441,38 441,39C441,39 441,40 441,40C441,41 440,41 440,41C440,41 440,41 440,42C440,42 440,42 440,42C439,43 440,43 440,43C439,43 439,44 439,44C439,44 439,44 439,45C439,45 438,45 438,45C438,46 438,46 438,46C438,46 437,47 437,47C437,47 437,47 437,48C437,48 437,48 437,48C436,49 437,49 437,49C436,49 435,50 435,51C435,51 435,51 435,51C435,52 434,52 434,52C434,52 434,52 434,53C434,53 434,53 434,53C434,54 434,54 434,54C434,54 433,55 433,55C433,55 433,55 433,56C433,56 432,56 432,56C432,57 432,57 432,57C432,57 432,58 431,58C431,58 432,58 431,59C431,59 431,59 431,59C431,60 431,60 431,61C431,61 430,61 430,62C430,62 430,65 430,65C430,66 429,66 429,66C429,66 429,67 429,67C429,68 430,68 430,68C430,69 430,71 430,71C430,72 431,72 431,72C431,72 431,72 431,73C431,73 431,73 431,73C432,74 431,74 431,74C432,75 436,80 437,80C438,80 438,80 438,80C438,80 439,81 439,81C439,81 439,81 440,81C440,81 440,81 440,81C440,82 441,81 441,81C441,82 441,82 442,82C442,82 442,82 442,82C443,82 443,83 443,83C444,83 445,83 445,83C446,83 446,84 446,84C448,84 459,84 461,84C461,84 461,83 462,83C462,83 465,83 465,83C466,83 466,84 466,84C467,84 470,83 471,84C472,84 472,84 472,84C472,85 474,84 474,84C475,85 475,85 475,85C475,85 476,85 476,85C477,85 477,86 477,86C477,86 478,86 478,86C478,86 478,87 479,87C479,87 480,86 480,87C480,87 481,87 481,87C481,87 481,87 482,87C482,88 482,88 482,88C483,88 483,88 483,88C483,88 483,89 484,89C484,89 485,89 485,89C486,88 486,83 485,81C485,81 485,81 485,81C484,80 485,78 485,78C484,77 484,77 484,77C484,77 484,77 484,76C484,76 483,76 483,76C483,75 483,74 483,74C483,74 482,74 482,73C482,73 482,73 482,73C482,72 482,72 482,72C481,72 482,71 482,71C481,70 477,66 476,66C476,66 476,66 476,66C475,66 475,65 475,65C475,65 474,65 474,65C474,65 474,65 473,65C473,64 472,65 472,65C472,64 472,64 471,64C470,63 464,63 462,64C462,64 462,64 462,65C461,65 461,64 461,65C461,65 460,65 460,65C460,65 460,65 459,65C459,65 459,66 459,66C458,66 458,66 458,66C458,66 458,67 457,67C457,67 456,67 456,67C455,67 455,67 455,67C454,68 451,68 451,67C450,67 450,67 450,67C450,67 449,67 449,67C449,67 448,66 448,66C448,66 448,66 448,65C448,65 448,65 448,65C447,64 447,60 448,59C448,58 448,58 448,58C448,58 448,57 448,57C448,57 449,57 449,56C449,56 449,55 449,55C449,55 450,55 450,54C450,54 450,53 450,53C450,52 450,52 451,52C451,52 450,51 451,51C451,50 451,50 451,50C451,49 451,49 451,48C451,48 452,48 452,48C452,47 452,46 452,45C452,45 453,45 453,45C453,44 452,40 453,39C453,39 453,39 454,39C454,38 454,36 454,36C453,35 453,35 453,35C452,34 453,30 453,29C453,29 452,29 452,28C452,28 452,27 452,26C452,26 451,26 451,25C451,25 451,24 451,24C451,24 451,24 451,23C450,23 451,23 451,22C450,22 450,22 450,22C450,22 450,21 450,21C450,21 449,21 449,20C449,20 449,20 449,20C449,19 448,19 448,18C448,18 448,18 448,17C447,17 446,16 446,16C446,16 446,15 446,15C446,14 443,11 442,11C441,11 441,11 441,11C441,11 440,9 440,9C439,9 439,9 439,9Z"/>
</svg>